<svg xmlns="http://www.w3.org/2000/svg" width="24" height="24" viewBox="0 0 24 24" fill="none" stroke="#ffffff" stroke-width="2" stroke-linecap="round" stroke-linejoin="round">
  <path d="M12 15.5a3.5 3.5 0 1 0 0-7 3.5 3.5 0 0 0 0 7z"/>
  <path d="M19.4 15a1.8 1.8 0 0 0 .3 2l.1.1a2.2 2.2 0 0 1-1.6 3.7h-.2a2.2 2.2 0 0 1-1.9-1.1l-.1-.1a1.8 1.8 0 0 0-2-.8 1.8 1.8 0 0 0-1.2 1.6V22a2.2 2.2 0 0 1-4.4 0v-.2a1.8 1.8 0 0 0-1.2-1.6 1.8 1.8 0 0 0-2 .8l-.1.1a2.2 2.2 0 0 1-3.7-1.6v-.2a2.2 2.2 0 0 1 1.1-1.9l.1-.1a1.8 1.8 0 0 0 .8-2 1.8 1.8 0 0 0-1.6-1.2H2a2.2 2.2 0 0 1 0-4.4h.2a1.8 1.8 0 0 0 1.6-1.2 1.8 1.8 0 0 0-.8-2l-.1-.1A2.2 2.2 0 0 1 4.5 2h.2a2.2 2.2 0 0 1 1.9 1.1l.1.1a1.8 1.8 0 0 0 2 .8 1.8 1.8 0 0 0 1.2-1.6V2a2.2 2.2 0 0 1 4.4 0v.2a1.8 1.8 0 0 0 1.2 1.6 1.8 1.8 0 0 0 2-.8l.1-.1A2.2 2.2 0 0 1 22 4.5v.2a2.2 2.2 0 0 1-1.1 1.9l-.1.1a1.8 1.8 0 0 0-.8 2 1.8 1.8 0 0 0 1.6 1.2H22a2.2 2.2 0 0 1 0 4.4h-.2a1.8 1.8 0 0 0-1.6 1.2z"/>
</svg>
